TITLE ""
FILE "P1Q_j_1735-1748.mp3" MP3
  TRACK 01 AUDIO
    TITLE "P1Q_j_1735-1748_01"
    INDEX 01 00:00:00
  TRACK 02 AUDIO
    TITLE "P1Q_j_1735-1748_02"
    INDEX 01 00:00:08
  TRACK 03 AUDIO
    TITLE "P1Q_j_1735-1748_03"
    INDEX 01 00:01:41
  TRACK 04 AUDIO
    TITLE "P1Q_j_1735-1748_04"
    INDEX 01 00:01:63
  TRACK 05 AUDIO
    TITLE "P1Q_j_1735-1748_05"
    INDEX 01 00:03:75
  TRACK 06 AUDIO
    TITLE "P1Q_j_1735-1748_06"
    INDEX 01 00:04:20
  TRACK 07 AUDIO
    TITLE "P1Q_j_1735-1748_07"
    INDEX 01 00:10:15
  TRACK 08 AUDIO
    TITLE "P1Q_j_1735-1748_08"
    INDEX 01 00:10:62
  TRACK 09 AUDIO
    TITLE "P1Q_j_1735-1748_09"
    INDEX 01 00:12:15
  TRACK 10 AUDIO
    TITLE "P1Q_j_1735-1748_10"
    INDEX 01 00:12:37
  TRACK 11 AUDIO
    TITLE "P1Q_j_1735-1748_11"
    INDEX 01 00:16:27
  TRACK 12 AUDIO
    TITLE "P1Q_j_1735-1748_12"
    INDEX 01 00:16:49
  TRACK 13 AUDIO
    TITLE "P1Q_j_1735-1748_13"
    INDEX 01 00:21:50
  TRACK 14 AUDIO
    TITLE "P1Q_j_1735-1748_14"
    INDEX 01 00:22:22
  TRACK 15 AUDIO
    TITLE "P1Q_j_1735-1748_15"
    INDEX 01 00:23:51
  TRACK 16 AUDIO
    TITLE "P1Q_j_1735-1748_16"
    INDEX 01 00:23:70
  TRACK 17 AUDIO
    TITLE "P1Q_j_1735-1748_17"
    INDEX 01 00:29:71
  TRACK 18 AUDIO
    TITLE "P1Q_j_1735-1748_18"
    INDEX 01 00:30:15
  TRACK 19 AUDIO
    TITLE "P1Q_j_1735-1748_19"
    INDEX 01 00:34:58
  TRACK 20 AUDIO
    TITLE "P1Q_j_1735-1748_20"
    INDEX 01 00:35:30
  TRACK 21 AUDIO
    TITLE "P1Q_j_1735-1748_21"
    INDEX 01 00:36:65
  TRACK 22 AUDIO
    TITLE "P1Q_j_1735-1748_22"
    INDEX 01 00:37:11
  TRACK 23 AUDIO
    TITLE "P1Q_j_1735-1748_23"
    INDEX 01 00:40:47
  TRACK 24 AUDIO
    TITLE "P1Q_j_1735-1748_24"
    INDEX 01 00:40:65
  TRACK 25 AUDIO
    TITLE "P1Q_j_1735-1748_25"
    INDEX 01 00:45:56
  TRACK 26 AUDIO
    TITLE "P1Q_j_1735-1748_26"
    INDEX 01 00:46:26
  TRACK 27 AUDIO
    TITLE "P1Q_j_1735-1748_27"
    INDEX 01 00:47:49
  TRACK 28 AUDIO
    TITLE "P1Q_j_1735-1748_28"
    INDEX 01 00:47:69
  TRACK 29 AUDIO
    TITLE "P1Q_j_1735-1748_29"
    INDEX 01 00:49:13
  TRACK 30 AUDIO
    TITLE "P1Q_j_1735-1748_30"
    INDEX 01 00:49:30
  TRACK 31 AUDIO
    TITLE "P1Q_j_1735-1748_31"
    INDEX 01 00:53:07
  TRACK 32 AUDIO
    TITLE "P1Q_j_1735-1748_32"
    INDEX 01 00:53:52
  TRACK 33 AUDIO
    TITLE "P1Q_j_1735-1748_33"
    INDEX 01 00:55:31
  TRACK 34 AUDIO
    TITLE "P1Q_j_1735-1748_34"
    INDEX 01 00:55:52
  TRACK 35 AUDIO
    TITLE "P1Q_j_1735-1748_35"
    INDEX 01 00:59:48
  TRACK 36 AUDIO
    TITLE "P1Q_j_1735-1748_36"
    INDEX 01 00:59:68
  TRACK 37 AUDIO
    TITLE "P1Q_j_1735-1748_37"
    INDEX 01 01:03:58
  TRACK 38 AUDIO
    TITLE "P1Q_j_1735-1748_38"
    INDEX 01 01:04:28
  TRACK 39 AUDIO
    TITLE "P1Q_j_1735-1748_39"
    INDEX 01 01:06:05
  TRACK 40 AUDIO
    TITLE "P1Q_j_1735-1748_40"
    INDEX 01 01:06:25
  TRACK 41 AUDIO
    TITLE "P1Q_j_1735-1748_41"
    INDEX 01 01:10:07
  TRACK 42 AUDIO
    TITLE "P1Q_j_1735-1748_42"
    INDEX 01 01:10:27
  TRACK 43 AUDIO
    TITLE "P1Q_j_1735-1748_43"
    INDEX 01 01:14:62
  TRACK 44 AUDIO
    TITLE "P1Q_j_1735-1748_44"
    INDEX 01 01:15:32
  TRACK 45 AUDIO
    TITLE "P1Q_j_1735-1748_45"
    INDEX 01 01:17:09
  TRACK 46 AUDIO
    TITLE "P1Q_j_1735-1748_46"
    INDEX 01 01:17:31
  TRACK 47 AUDIO
    TITLE "P1Q_j_1735-1748_47"
    INDEX 01 01:19:29
  TRACK 48 AUDIO
    TITLE "P1Q_j_1735-1748_48"
    INDEX 01 01:19:51
  TRACK 49 AUDIO
    TITLE "P1Q_j_1735-1748_49"
    INDEX 01 01:24:17
  TRACK 50 AUDIO
    TITLE "P1Q_j_1735-1748_50"
    INDEX 01 01:24:66
  TRACK 51 AUDIO
    TITLE "P1Q_j_1735-1748_51"
    INDEX 01 01:26:45
  TRACK 52 AUDIO
    TITLE "P1Q_j_1735-1748_52"
    INDEX 01 01:26:67
  TRACK 53 AUDIO
    TITLE "P1Q_j_1735-1748_53"
    INDEX 01 01:29:30
  TRACK 54 AUDIO
    TITLE "P1Q_j_1735-1748_54"
    INDEX 01 01:29:51
  TRACK 55 AUDIO
    TITLE "P1Q_j_1735-1748_55"
    INDEX 01 01:33:35
  TRACK 56 AUDIO
    TITLE "P1Q_j_1735-1748_56"
    INDEX 01 01:34:07
  TRACK 57 AUDIO
    TITLE "P1Q_j_1735-1748_57"
    INDEX 01 01:35:32
  TRACK 58 AUDIO
    TITLE "P1Q_j_1735-1748_58"
    INDEX 01 01:35:56
  TRACK 59 AUDIO
    TITLE "P1Q_j_1735-1748_59"
    INDEX 01 01:38:05
  TRACK 60 AUDIO
    TITLE "P1Q_j_1735-1748_60"
    INDEX 01 01:38:25
  TRACK 61 AUDIO
    TITLE "P1Q_j_1735-1748_61"
    INDEX 01 01:42:50
  TRACK 62 AUDIO
    TITLE "P1Q_j_1735-1748_62"
    INDEX 01 01:43:20
  TRACK 63 AUDIO
    TITLE "P1Q_j_1735-1748_63"
    INDEX 01 01:44:47
  TRACK 64 AUDIO
    TITLE "P1Q_j_1735-1748_64"
    INDEX 01 01:44:67
  TRACK 65 AUDIO
    TITLE "P1Q_j_1735-1748_65"
    INDEX 01 01:47:16
  TRACK 66 AUDIO
    TITLE "P1Q_j_1735-1748_66"
    INDEX 01 01:47:36
  TRACK 67 AUDIO
    TITLE "P1Q_j_1735-1748_67"
    INDEX 01 01:51:45
  TRACK 68 AUDIO
    TITLE "P1Q_j_1735-1748_68"
    INDEX 01 01:52:17
  TRACK 69 AUDIO
    TITLE "P1Q_j_1735-1748_69"
    INDEX 01 01:53:73
  TRACK 70 AUDIO
    TITLE "P1Q_j_1735-1748_70"
    INDEX 01 01:54:20
  TRACK 71 AUDIO
    TITLE "P1Q_j_1735-1748_71"
    INDEX 01 01:59:72
  TRACK 72 AUDIO
    TITLE "P1Q_j_1735-1748_72"
    INDEX 01 02:00:17
  TRACK 73 AUDIO
    TITLE "P1Q_j_1735-1748_73"
    INDEX 01 02:04:58
  TRACK 74 AUDIO
    TITLE "P1Q_j_1735-1748_74"
    INDEX 01 02:05:28
  TRACK 75 AUDIO
    TITLE "P1Q_j_1735-1748_75"
    INDEX 01 02:06:72
  TRACK 76 AUDIO
    TITLE "P1Q_j_1735-1748_76"
    INDEX 01 02:07:19
  TRACK 77 AUDIO
    TITLE "P1Q_j_1735-1748_77"
    INDEX 01 02:13:62
  TRACK 78 AUDIO
    TITLE "P1Q_j_1735-1748_78"
    INDEX 01 02:14:07
  TRACK 79 AUDIO
    TITLE "P1Q_j_1735-1748_79"
    INDEX 01 02:18:67
  TRACK 80 AUDIO
    TITLE "P1Q_j_1735-1748_80"
    INDEX 01 02:19:40
  TRACK 81 AUDIO
    TITLE "P1Q_j_1735-1748_81"
    INDEX 01 02:20:74
  TRACK 82 AUDIO
    TITLE "P1Q_j_1735-1748_82"
    INDEX 01 02:21:19
  TRACK 83 AUDIO
    TITLE "P1Q_j_1735-1748_83"
    INDEX 01 02:24:54
  TRACK 84 AUDIO
    TITLE "P1Q_j_1735-1748_84"
    INDEX 01 02:24:72
  TRACK 85 AUDIO
    TITLE "P1Q_j_1735-1748_85"
    INDEX 01 02:29:28
